<svg width="880" height="341" viewBox="0 0 880 341" fill="none" xmlns="http://www.w3.org/2000/svg">
<path fill-rule="evenodd" clip-rule="evenodd" d="M107.511 244.62C96.9315 251.19 87.2015 256.01 78.3815 259.22C27.7915 278.71 -9.46849 252.95 4.56151 204.43C-14.0685 268.32 23.4215 316.85 134.492 271.22C195.661 246.08 305.432 165.76 354.262 116.7C365.602 105.31 370.132 96.07 374.042 81.01C381.252 53.12 386.302 26.14 388.992 0C336.862 58.92 174.271 202.98 107.511 244.62Z" fill="#004E45"/>
<path fill-rule="evenodd" clip-rule="evenodd" d="M28.9414 295.67C66.5014 337.39 153.731 318.67 290.641 239.42C303.591 231.93 307.501 227.88 312.181 211.45C316.861 194.87 320.541 177.83 323.291 160.25C321.141 162.01 319.001 163.77 316.771 165.6C278.831 196.78 237.511 226.66 195.421 252.11C155.101 276.49 101.291 303.01 53.3014 300.41C44.8814 299.95 36.6014 298.5 28.9414 295.67Z" fill="#004E45"/>
<path fill-rule="evenodd" clip-rule="evenodd" d="M37.3716 317.23C67.4916 348.33 136.792 348.41 245.262 317.31C265.342 311.58 266.652 312.57 278.452 294.54C287.192 281.17 292.252 266.34 296.392 249.37C267.262 266.18 237.362 282.23 206.622 295.91C182.862 306.53 157.872 316.16 132.572 322.35C102.142 329.83 65.4216 333.58 37.3716 317.23Z" fill="#004E45"/>
<path fill-rule="evenodd" clip-rule="evenodd" d="M29.2014 209.67C36.6014 192.5 50.9214 172.68 73.2014 152.35C74.0714 151.56 74.1614 150.22 73.3914 149.33L54.3414 127.3C53.5014 126.33 52.0014 126.3 51.1214 127.23C31.8614 147.79 17.6814 169.91 9.22142 191C9.04142 191.45 9.15144 191.96 9.49144 192.3L27.2514 210.06C27.8514 210.66 28.8614 210.46 29.2014 209.67Z" fill="#00C169"/>
<path fill-rule="evenodd" clip-rule="evenodd" d="M26.5615 214.46L8.86149 196.76C8.24149 196.14 7.17148 196.37 6.88148 197.2C6.03148 199.62 5.2515 202.03 4.5515 204.42C-10.4685 262.12 26.7115 288.41 78.3715 259.21C35.0415 275.09 13.9515 252.64 26.8415 215.7C27.0015 215.28 26.8915 214.79 26.5615 214.46Z" fill="#00C169"/>
<path fill-rule="evenodd" clip-rule="evenodd" d="M78.3315 187.21L64.7315 173.61C64.2415 173.12 63.4515 173.14 62.9915 173.65C51.4715 186.45 41.6115 199.85 35.8315 213.6C23.2615 243.71 33.6115 263.5 67.6415 254.56C41.4315 251.17 43.2715 226.58 78.3515 188.88C78.8015 188.4 78.7915 187.66 78.3315 187.21Z" fill="#00C169"/>
<path fill-rule="evenodd" clip-rule="evenodd" d="M118.871 120C103.511 134.59 83.9215 151.25 67.0815 169.21C66.6415 169.68 66.6515 170.42 67.1115 170.88L80.7815 184.55C81.2515 185.02 82.0215 185.02 82.4915 184.54C95.8215 170.83 113.351 155.51 135.311 138.95C135.871 138.53 135.951 137.73 135.501 137.2L120.611 120.09C120.151 119.57 119.361 119.53 118.871 120Z" fill="#00C169"/>
<path fill-rule="evenodd" clip-rule="evenodd" d="M134.331 171.97C149.151 161.23 166.401 149.78 185.791 137.92C186.421 137.53 186.561 136.67 186.071 136.11L173.711 121.83C173.331 121.39 172.681 121.28 172.181 121.59C156.921 130.92 138.311 145.11 121.761 159C121.221 159.45 121.191 160.27 121.691 160.77L132.781 171.86C133.201 172.26 133.851 172.32 134.331 171.97Z" fill="#00C169"/>
<path fill-rule="evenodd" clip-rule="evenodd" d="M85.8514 211.96L77.3314 203.44C76.8314 202.94 76.0115 202.98 75.5615 203.52C69.2515 211.15 63.6814 219.25 60.1414 227.36C50.4814 249.22 72.9414 251.66 87.9714 246.77C69.0514 244.48 69.6614 232.17 85.9114 213.61C86.3214 213.13 86.3014 212.41 85.8514 211.96Z" fill="#00C169"/>
<path fill-rule="evenodd" clip-rule="evenodd" d="M89.9315 209.2C99.3515 199.34 112.691 187.96 129.441 175.55C130.031 175.11 130.101 174.25 129.581 173.73L118.801 162.95C118.361 162.51 117.641 162.48 117.171 162.89C110.051 168.99 103.431 174.93 97.7815 180.28C91.9415 185.77 85.5215 192.1 79.5015 198.91C79.0815 199.39 79.1015 200.11 79.5515 200.56L88.2215 209.23C88.6915 209.7 89.4715 209.69 89.9315 209.2Z" fill="#00C169"/>
<path d="M443.94 191.42C437.97 191.56 431.87 191.63 425.62 191.63C419.37 191.63 413.27 191.56 407.31 191.42C401.35 191.28 395.24 191.12 389 190.92C389.47 192.82 389.71 194.28 389.71 195.32C389.71 196.65 389.48 198.16 389 199.86C390.99 199.58 393.24 199.34 395.74 199.15C398.25 198.96 400.85 198.8 403.55 198.65C406.25 198.51 408.94 198.42 411.64 198.37C414.34 198.32 416.91 198.3 419.38 198.3C419.67 208.05 419.81 217.85 419.81 227.69V252.11C419.81 258.36 419.69 264.51 419.46 270.57C419.22 276.63 418.96 282.59 418.68 288.46C420.85 288.27 423.17 288.18 425.63 288.18C428.09 288.18 430.41 288.27 432.59 288.46C432.3 282.59 432.04 276.63 431.81 270.57C431.57 264.51 431.45 258.36 431.45 252.11V227.69C431.45 217.85 431.59 208.05 431.88 198.3C434.34 198.3 436.92 198.33 439.62 198.37C442.32 198.42 445.02 198.51 447.72 198.65C450.42 198.79 453.02 198.96 455.53 199.15C458.04 199.34 460.29 199.58 462.28 199.86C461.8 198.16 461.57 196.69 461.57 195.46C461.57 194.32 461.8 192.81 462.28 190.91C456.01 191.12 449.9 191.28 443.94 191.42Z" fill="#004E45"/>
<path d="M537.93 274.2C535.47 271.13 532.91 267.91 530.26 264.55C527.61 261.19 525.05 257.97 522.59 254.89C520.13 251.82 517.91 249 515.92 246.44C513.93 243.89 512.37 241.9 511.23 240.48C513.98 240.1 517.03 239.32 520.39 238.14C523.75 236.96 526.9 235.3 529.83 233.17C532.76 231.04 535.25 228.34 537.28 225.07C539.32 221.81 540.33 217.9 540.33 213.36C540.33 209.1 539.55 205.55 537.99 202.71C536.43 199.87 534.3 197.58 531.6 195.82C528.91 194.07 525.76 192.81 522.16 192.06C518.56 191.3 514.78 190.92 510.8 190.92C508.05 190.92 505.36 191.04 502.71 191.28C500.06 191.52 497.36 191.63 494.61 191.63C491.87 191.63 489.17 191.56 486.52 191.42C483.87 191.28 481.17 191.11 478.42 190.92C478.7 197.17 478.96 203.3 479.2 209.31C479.43 215.32 479.56 221.45 479.56 227.69V252.11C479.56 258.36 479.44 264.51 479.2 270.57C478.96 276.63 478.7 282.59 478.42 288.46C480.6 288.27 482.92 288.18 485.38 288.18C487.84 288.18 490.16 288.27 492.33 288.46C492.05 282.59 491.79 276.63 491.55 270.57C491.31 264.51 491.19 258.36 491.19 252.11V241.74H496.59C499.62 244.87 502.95 248.68 506.6 253.17C510.24 257.66 513.82 262.18 517.32 266.73C520.82 271.27 524.02 275.53 526.9 279.51C529.79 283.49 531.94 286.47 533.36 288.45C534.68 288.26 536.06 288.17 537.48 288.17H541.6H545.86C547.28 288.17 548.7 288.26 550.12 288.45C548.79 287.12 547.04 285.19 544.87 282.63C542.71 280.09 540.39 277.28 537.93 274.2ZM500.74 236.5C498.84 236.5 497.12 236.45 495.56 236.36C494 236.27 492.55 236.07 491.23 235.79V227.7C491.23 222.59 491.32 217.48 491.52 212.37C491.71 207.26 491.9 202.1 492.09 196.89C493.6 196.7 495.45 196.53 497.63 196.39C499.81 196.25 502.55 196.18 505.87 196.18C508.33 196.18 510.84 196.44 513.39 196.96C515.95 197.48 518.31 198.45 520.49 199.87C522.66 201.29 524.44 203.21 525.81 205.62C527.18 208.03 527.87 211.08 527.87 214.78C527.87 219.04 526.99 222.57 525.24 225.36C523.49 228.15 521.29 230.38 518.64 232.03C515.99 233.69 513.08 234.85 509.91 235.51C506.72 236.18 503.67 236.5 500.74 236.5Z" fill="#004E45"/>
<path d="M618.59 280.38C616.32 280.85 613.64 281.21 610.57 281.44C607.49 281.68 604.23 281.87 600.77 282.01C597.31 282.15 593.79 282.22 590.2 282.22H580.26C580.17 280.42 580.09 277.77 580.05 274.27C580 270.77 579.97 266.32 579.97 260.92V252.4V246.86C579.97 245.35 580 244.09 580.05 243.1C580.09 242.11 580.12 241.18 580.12 240.33C581.82 240.33 584.12 240.36 587.01 240.4C589.9 240.45 592.97 240.5 596.24 240.54C599.51 240.59 602.77 240.71 606.04 240.9C609.3 241.09 612.17 241.33 614.63 241.61C614.34 240.19 614.2 238.77 614.2 237.35C614.2 235.84 614.34 234.37 614.63 232.95C612.55 233.14 610.35 233.31 608.03 233.45C605.71 233.59 603.18 233.74 600.43 233.88C597.69 234.02 594.66 234.14 591.35 234.24C588.04 234.33 584.3 234.38 580.13 234.38C580.13 232.58 580.11 229.93 580.06 226.43C580.01 222.93 579.98 219.33 579.98 215.64C579.98 212.14 580.06 209.01 580.19 206.27C580.33 203.53 580.45 200.64 580.55 197.61C585.18 197.61 589.16 197.68 592.47 197.82C595.78 197.96 598.84 198.13 601.63 198.31C604.42 198.5 607.07 198.69 609.58 198.88C612.09 199.07 614.86 199.26 617.89 199.45C617.61 198.03 617.46 196.61 617.46 195.19C617.46 193.77 617.6 192.35 617.89 190.93C613.63 191.12 609.42 191.29 605.26 191.43C601.09 191.57 596.88 191.64 592.62 191.64C588.36 191.64 584.13 191.57 579.91 191.43C575.7 191.29 571.46 191.12 567.2 190.93C567.49 196.99 567.74 203.05 567.98 209.11C568.22 215.17 568.34 221.32 568.34 227.57V251.99C568.34 258.23 568.22 264.37 567.98 270.38C567.74 276.39 567.48 282.43 567.2 288.48C571.55 288.29 575.86 288.2 580.12 288.2H593.04H605.89C610.1 288.2 614.34 288.29 618.59 288.48C618.3 287.53 618.17 286.31 618.17 284.79C618.17 284.13 618.19 283.4 618.24 282.59C618.28 281.78 618.4 281.04 618.59 280.38Z" fill="#004E45"/>
<path d="M699.31 242.61C694.44 238.92 687.79 236.88 679.36 236.5V236.22C686.46 234.61 692.21 231.82 696.61 227.84C701.01 223.86 703.21 218.38 703.21 211.37C703.21 207.39 702.4 204.08 700.8 201.43C699.19 198.78 697.01 196.67 694.27 195.11C691.53 193.55 688.36 192.46 684.76 191.85C681.16 191.24 677.33 190.93 673.26 190.93C670.8 190.93 668.29 191.05 665.74 191.29C663.18 191.53 660.67 191.65 658.21 191.65C655.75 191.65 653.24 191.58 650.69 191.44C648.13 191.3 645.62 191.14 643.16 190.94C643.45 197 643.71 203.06 643.94 209.11C644.17 215.17 644.3 221.32 644.3 227.57V251.99C644.3 258.24 644.18 264.37 643.94 270.38C643.71 276.39 643.44 282.42 643.16 288.48C645.43 288.29 647.73 288.2 650.04 288.2H656.93C659.2 288.2 661.49 288.25 663.82 288.34C666.14 288.43 668.43 288.48 670.7 288.48C674.87 288.48 679.05 288.03 683.27 287.13C687.48 286.23 691.34 284.67 694.84 282.44C698.34 280.22 701.18 277.31 703.36 273.71C705.53 270.11 706.62 265.67 706.62 260.36C706.63 252.22 704.19 246.3 699.31 242.61ZM655.94 223.87C655.94 219.33 656.03 214.83 656.23 210.38C656.42 205.93 656.61 201.44 656.8 196.89C658.13 196.7 659.64 196.53 661.35 196.39C663.05 196.25 665.13 196.18 667.59 196.18C670.34 196.18 673.08 196.39 675.83 196.82C678.57 197.25 681.03 198.1 683.21 199.38C685.39 200.66 687.19 202.46 688.6 204.77C690.02 207.09 690.73 210.19 690.73 214.07C690.73 218.05 689.95 221.34 688.38 223.94C686.82 226.54 684.76 228.62 682.21 230.19C679.65 231.75 676.74 232.86 673.48 233.52C670.22 234.19 666.93 234.51 663.61 234.51H655.94V223.87ZM691.72 269.94C690.49 272.92 688.83 275.43 686.75 277.47C684.67 279.51 682.23 281.04 679.44 282.08C676.65 283.12 673.73 283.64 670.71 283.64C668.16 283.64 665.64 283.56 663.18 283.42C660.72 283.28 658.59 283.12 656.79 282.93C656.6 278.1 656.41 273.32 656.22 268.59C656.03 263.86 655.93 259.08 655.93 254.25V239.77H662.32C667.05 239.77 671.34 240.05 675.17 240.62C679 241.19 682.29 242.21 685.04 243.67C687.79 245.14 689.89 247.18 691.36 249.78C692.83 252.39 693.56 255.72 693.56 259.79C693.56 263.57 692.95 266.96 691.72 269.94Z" fill="#004E45"/>
<path d="M792.07 264.61C789.65 259.07 787.08 253.09 784.33 246.65C781.58 240.21 778.84 233.73 776.09 227.2C773.35 220.67 770.65 214.21 767.99 207.82C765.34 201.43 762.88 195.49 760.61 190H757.91C750.53 206.94 743.19 223.6 735.9 239.98C728.61 256.35 721.14 272.82 713.47 289.39C715.08 289.2 716.83 289.11 718.72 289.11C720.61 289.11 722.36 289.2 723.97 289.39C725.2 285.04 727.05 279.52 729.51 272.85C731.97 266.18 734.71 259.15 737.74 251.77C737.78 251.77 740.55 245.24 740.55 245.24C740.54 245.24 746.34 231.31 746.34 231.31L755.93 209.17C755.93 209.17 771.52 245.24 771.43 245.24L773.91 252.32C775.08 255.28 776.33 258.37 777.66 261.63C779.08 265.08 780.47 268.49 781.85 271.85C783.22 275.21 784.48 278.43 785.61 281.51C786.74 284.59 787.65 287.21 788.31 289.39C789.64 289.2 790.89 289.11 792.07 289.11H795.83H799.59C800.77 289.11 802.03 289.2 803.35 289.39C802.12 287.12 800.54 283.81 798.6 279.45C796.66 275.1 794.49 270.15 792.07 264.61Z" fill="#004E45"/>
<path d="M874.15 191.64C872.82 191.64 870.98 191.41 868.61 190.93C866.72 195 864.68 199.19 862.51 203.5C860.33 207.81 858.06 212.09 855.69 216.35C853.32 220.61 850.96 224.77 848.59 228.84C846.22 232.91 843.95 236.65 841.78 240.06C836.86 231.45 832.2 223.17 827.79 215.21C823.39 207.26 819.06 199.17 814.8 190.93C813.47 191.12 812.18 191.29 810.9 191.43C809.62 191.57 808.32 191.64 806.99 191.64C805.66 191.64 804.36 191.57 803.08 191.43C801.81 191.29 800.5 191.12 799.18 190.93C800.13 192.45 801.5 194.69 803.3 197.68C805.1 200.66 807.11 204.02 809.34 207.76C811.56 211.5 813.91 215.43 816.37 219.55C818.83 223.67 821.17 227.59 823.4 231.33C825.63 235.07 827.66 238.48 829.51 241.55C831.35 244.63 832.75 246.97 833.7 248.58C833.7 256.25 833.65 263.58 833.56 270.59C833.47 277.59 833.14 283.56 832.57 288.48C834.74 288.29 837.06 288.19 839.52 288.19C841.98 288.19 844.3 288.28 846.48 288.48C846.29 286.49 846.12 283.86 845.98 280.6C845.84 277.33 845.72 273.78 845.63 269.95C845.53 266.12 845.46 262.21 845.42 258.23C845.37 254.25 845.35 250.52 845.35 247.02C846.86 244.09 848.66 240.8 850.74 237.15C852.82 233.51 855.24 229.41 857.98 224.87C860.72 220.33 863.89 215.26 867.49 209.68C871.09 204.1 875.16 197.85 879.7 190.94C877.32 191.4 875.47 191.64 874.15 191.64Z" fill="#004E45"/>
<path d="M737.72 251.75C741.36 251.5 745.08 251.05 748.86 250.4C770.24 246.71 788.23 237.29 797.85 226.1C794.21 226.35 790.49 226.8 786.71 227.45C765.33 231.15 747.34 240.56 737.72 251.75Z" fill="#00C169"/>
</svg>
